<svg width="59" height="58" viewBox="0 0 59 58" fill="none" xmlns="http://www.w3.org/2000/svg">
<path d="M51.6248 29C50.9729 29 50.3476 29.2546 49.8865 29.7078C49.4255 30.1611 49.1665 30.7757 49.1665 31.4167V45.9167C49.1665 46.5576 48.9075 47.1723 48.4465 47.6255C47.9855 48.0787 47.3602 48.3334 46.7082 48.3334H12.2915C11.6395 48.3334 11.0142 48.0787 10.5532 47.6255C10.0922 47.1723 9.83317 46.5576 9.83317 45.9167V12.0833C9.83317 11.4424 10.0922 10.8277 10.5532 10.3745C11.0142 9.9213 11.6395 9.66668 12.2915 9.66668H27.0415C27.6935 9.66668 28.3188 9.41207 28.7798 8.95886C29.2408 8.50564 29.4998 7.89096 29.4998 7.25002C29.4998 6.60908 29.2408 5.99439 28.7798 5.54117C28.3188 5.08796 27.6935 4.83335 27.0415 4.83335H12.2915C10.3355 4.83335 8.45967 5.59719 7.07659 6.95682C5.69351 8.31646 4.9165 10.1605 4.9165 12.0833V45.9167C4.9165 47.8395 5.69351 49.6836 7.07659 51.0432C8.45967 52.4028 10.3355 53.1667 12.2915 53.1667H46.7082C48.6641 53.1667 50.54 52.4028 51.9231 51.0432C53.3062 49.6836 54.0832 47.8395 54.0832 45.9167V31.4167C54.0832 30.7757 53.8242 30.1611 53.3631 29.7078C52.9021 29.2546 52.2768 29 51.6248 29ZM14.7498 30.8367V41.0834C14.7498 41.7243 15.0088 42.339 15.4699 42.7922C15.9309 43.2454 16.5562 43.5 17.2082 43.5H27.6315C27.955 43.5019 28.2758 43.4409 28.5753 43.3206C28.8748 43.2004 29.1472 43.0232 29.3769 42.7992L46.3886 26.0517L53.3703 19.3333C53.6007 19.1087 53.7836 18.8414 53.9084 18.5469C54.0332 18.2524 54.0974 17.9365 54.0974 17.6175C54.0974 17.2985 54.0332 16.9826 53.9084 16.6881C53.7836 16.3936 53.6007 16.1263 53.3703 15.9017L42.9469 5.53418C42.7184 5.30767 42.4465 5.12789 42.1469 5.00519C41.8474 4.8825 41.526 4.81934 41.2015 4.81934C40.877 4.81934 40.5557 4.8825 40.2561 5.00519C39.9565 5.12789 39.6846 5.30767 39.4561 5.53418L32.5236 12.3733L15.4628 29.1208C15.2349 29.3467 15.0547 29.6145 14.9323 29.9089C14.81 30.2034 14.748 30.5186 14.7498 30.8367ZM41.2015 10.6575L48.1586 17.4967L44.6678 20.9283L37.7107 14.0892L41.2015 10.6575ZM19.6665 31.8275L34.2444 17.4967L41.2015 24.3358L26.6236 38.6667H19.6665V31.8275Z" fill="white"/>
</svg>
