<svg width="43" height="49" viewBox="0 0 43 49" fill="none" xmlns="http://www.w3.org/2000/svg">
<path d="M41.0473 36.2825L36.5693 31.1933C35.606 30.1772 34.391 29.504 33.0803 29.2602C31.7696 29.0164 30.4232 29.213 29.214 29.8249L27.267 27.6644C29.5613 24.2626 30.6091 20.0226 30.1995 15.798C29.7898 11.5733 27.9532 7.67777 25.0592 4.89544C22.1653 2.11311 18.4289 0.650639 14.6023 0.802421C10.7756 0.954204 7.14291 2.70897 4.43535 5.71348C1.72779 8.71799 0.146455 12.7492 0.0096735 16.9955C-0.127108 21.2418 1.19082 25.3879 3.69816 28.5993C6.20549 31.8106 9.71605 33.8487 13.5231 34.3033C17.3302 34.7579 21.1512 33.5952 24.2168 31.0492L26.1421 33.1857C25.5258 34.5292 25.3049 36.0534 25.5106 37.5435C25.7163 39.0337 26.3382 40.4146 27.2887 41.4917L31.8749 46.581C33.0918 47.9296 34.7413 48.6871 36.4611 48.6871C38.181 48.6871 39.8305 47.9296 41.0473 46.581C41.6655 45.9103 42.1566 45.1093 42.492 44.225C42.8273 43.3408 43 42.3911 43 41.4317C43 40.4724 42.8273 39.5227 42.492 38.6384C42.1566 37.7542 41.6655 36.9532 41.0473 36.2825ZM22.7024 26.104C21.1886 27.7796 19.2613 28.9198 17.1638 29.3805C15.0663 29.8411 12.8929 29.6017 10.918 28.6923C8.94313 27.783 7.25542 26.2445 6.06809 24.2713C4.88076 22.2981 4.24707 19.9787 4.24707 17.606C4.24707 15.2334 4.88076 12.9139 6.06809 10.9407C7.25542 8.96751 8.94313 7.42906 10.918 6.5197C12.8929 5.61034 15.0663 5.37087 17.1638 5.83155C19.2613 6.29222 21.1886 7.43237 22.7024 9.10797C23.7097 10.2229 24.5089 11.5475 25.0542 13.0057C25.5995 14.4639 25.8802 16.0272 25.8802 17.606C25.8802 19.1848 25.5995 20.7481 25.0542 22.2063C24.5089 23.6646 23.7097 24.9891 22.7024 26.104ZM37.9971 43.0761C37.796 43.3011 37.5567 43.4797 37.2931 43.6016C37.0295 43.7235 36.7467 43.7862 36.4611 43.7862C36.1755 43.7862 35.8928 43.7235 35.6292 43.6016C35.3655 43.4797 35.1263 43.3011 34.9252 43.0761L30.3389 37.9869C30.1362 37.7637 29.9752 37.4982 29.8654 37.2057C29.7556 36.9132 29.699 36.5994 29.699 36.2825C29.699 35.9656 29.7556 35.6518 29.8654 35.3593C29.9752 35.0667 30.1362 34.8012 30.3389 34.5781C30.54 34.3531 30.7793 34.1745 31.0429 34.0526C31.3065 33.9307 31.5893 33.868 31.8749 33.868C32.1605 33.868 32.4432 33.9307 32.7068 34.0526C32.9705 34.1745 33.2097 34.3531 33.4108 34.5781L37.9971 39.6673C38.1998 39.8905 38.3608 40.156 38.4706 40.4485C38.5804 40.741 38.637 41.0548 38.637 41.3717C38.637 41.6886 38.5804 42.0024 38.4706 42.2949C38.3608 42.5874 38.1998 42.853 37.9971 43.0761Z" fill="black"/>
</svg>
