<svg width="124" height="124" viewBox="0 0 124 124" fill="none" xmlns="http://www.w3.org/2000/svg">
<path fill-rule="evenodd" clip-rule="evenodd" d="M63.4968 33.2182C63.0031 33.0818 62.4679 33.1136 62.0003 33.307C61.7685 33.3998 61.5629 33.5353 61.3977 33.7039C61.2325 33.8724 61.1117 34.0701 61.0436 34.2832L59.4173 39.7088C58.8491 41.605 58.0234 43.4361 56.9573 45.164C55.3002 47.8472 52.7958 49.9091 50.4724 51.6427L45.5593 55.311C45.1834 55.5918 44.8899 55.9457 44.7028 56.3437C44.5157 56.7418 44.4404 57.1726 44.483 57.6008L47.2573 85.3884C47.3248 86.0633 47.6818 86.6919 48.2579 87.1502C48.8341 87.6085 49.5876 87.8634 50.3699 87.8645H66.254C76.9687 87.8645 85.9989 81.4095 87.7312 72.7386L90.1399 60.6686C90.2181 60.2796 90.1971 59.8806 90.0785 59.4993C89.9599 59.1181 89.7466 58.7639 89.4533 58.4615C89.1601 58.1592 88.7941 57.916 88.381 57.7489C87.9678 57.5818 87.5175 57.4949 87.0615 57.4943H69.3598C66.0217 57.4943 63.4831 54.9028 64.0229 52.051L66.2882 40.0875C66.5985 38.4488 66.5101 36.7721 66.0285 35.1648C65.8926 34.7393 65.6347 34.3504 65.2786 34.0344C64.9226 33.7184 64.4801 33.4855 63.9922 33.3573L63.4968 33.2182ZM59.7726 29.3103C61.4249 28.622 63.3191 28.5087 65.065 28.9937L65.5604 29.1328C68.2152 29.8723 70.2857 31.7065 70.9895 34.0495C71.6489 36.2564 71.7719 38.558 71.3448 40.8063L69.0796 52.7698C69.0726 52.8051 69.0746 52.8413 69.0855 52.8758C69.0964 52.9104 69.1159 52.9424 69.1425 52.9698C69.1692 52.9971 69.2025 53.0191 69.24 53.0341C69.2776 53.0491 69.3184 53.0569 69.3598 53.0568H87.0581C92.1831 53.0568 96.0644 57.0565 95.1898 61.4259L92.781 73.4959C90.6012 84.4063 79.3262 92.302 66.254 92.302H50.3699C48.3049 92.3005 46.3155 91.6289 44.7943 90.4197C43.2731 89.2104 42.3306 87.5514 42.1528 85.77L39.3751 57.9824C39.2622 56.8539 39.4604 55.7183 39.9534 54.6691C40.4464 53.6199 41.2202 52.6871 42.2109 51.9474L47.1309 48.2791C49.3688 46.6106 51.2514 44.9924 52.4336 43.0724C53.3113 41.6545 53.9904 40.1509 54.4563 38.5935L56.0826 33.1709C56.3369 32.334 56.7988 31.555 57.436 30.8883C58.0733 30.2216 58.8706 29.6831 59.7726 29.3103ZM31.1409 53.0598C31.8012 53.0348 32.4472 53.2316 32.9438 53.6093C33.4404 53.9869 33.7493 54.516 33.8059 55.0862L37.1201 88.326C37.1762 88.821 37.1153 89.3207 36.9409 89.7946C36.7665 90.2685 36.4824 90.7067 36.1058 91.0823C35.7293 91.458 35.2683 91.7632 34.751 91.9794C34.2337 92.1956 33.6709 92.3182 33.097 92.3397C32.5231 92.3613 31.9501 92.2813 31.4132 92.1047C30.8762 91.9281 30.3864 91.6585 29.9737 91.3125C29.5611 90.9665 29.2342 90.5513 29.0131 90.0922C28.792 89.6332 28.6813 89.1399 28.6878 88.6426V55.2755C28.6872 54.7031 28.9421 54.1527 29.3992 53.7392C29.8564 53.3257 30.4804 53.0842 31.1409 53.0598Z" fill="white"/>
<circle cx="62" cy="62" r="60" stroke="white" stroke-width="4"/>
</svg>
